<svg xmlns="http://www.w3.org/2000/svg" viewBox="0 0 1044 648" width="1044" height="648" role="img" aria-label="ulx" font-family="ui-monospace,SFMono-Regular,Menlo,Consolas,'DejaVu Sans Mono','Liberation Mono',monospace" font-size="14" xml:space="preserve">
<title>ulx</title>
<style>
text{font-family:ui-monospace,SFMono-Regular,Menlo,Consolas,'DejaVu Sans Mono','Liberation Mono',monospace;font-size:14px;white-space:pre}
</style>
<defs>
<g id="r0"><text x="0.00" y="13" fill="#dca66a" font-weight="700" textLength="25.20" lengthAdjust="spacing">ulx</text><text x="33.60" y="13" fill="#a8977f">┃</text><text x="50.40" y="13" fill="#cdbca6">⎇</text><text x="67.20" y="13" fill="#cdbca6" textLength="33.60" lengthAdjust="spacing">main</text><text x="117.60" y="13" fill="#b8a690" textLength="168.00" lengthAdjust="spacing">/home/dev/my-project</text><text x="537.60" y="13" fill="#f1e6d6" textLength="142.80" lengthAdjust="spacing">claude-sonnet-4.5</text><text x="688.80" y="13" fill="#3a2e23">│</text><text x="705.60" y="13" fill="#cdbca6" font-weight="700" textLength="33.60" lengthAdjust="spacing">PLAN</text><text x="747.60" y="13" fill="#dca66a" font-weight="700" textLength="16.80" lengthAdjust="spacing">▰▰</text><text x="764.40" y="13" fill="#a8977f" textLength="25.20" lengthAdjust="spacing">▱▱▱</text><text x="982.80" y="13" fill="#dca66a" font-weight="700" textLength="25.20" lengthAdjust="spacing">1/3</text></g>
<g id="r1"><text x="0.00" y="13" fill="#3a2e23" textLength="680.40" lengthAdjust="spacing">─────────────────────────────────────────────────────────────────────────────────</text><text x="688.80" y="13" fill="#3a2e23">│</text><text x="714.00" y="13" fill="#a3c47a">✔</text><text x="730.80" y="13" fill="#cdbca6" textLength="33.60" lengthAdjust="spacing">wire</text><text x="772.80" y="13" fill="#cdbca6" textLength="25.20" lengthAdjust="spacing">the</text><text x="806.40" y="13" fill="#cdbca6" textLength="33.60" lengthAdjust="spacing">flag</text></g>
<g id="r2"><text x="16.80" y="13" fill="#b8a690">└</text><text x="33.60" y="13" fill="#cdbca6" textLength="33.60" lengthAdjust="spacing">exit</text><text x="75.60" y="13" fill="#cdbca6" textLength="50.40" lengthAdjust="spacing">status</text><text x="134.40" y="13" fill="#cdbca6">1</text><text x="688.80" y="13" fill="#3a2e23">│</text><text x="714.00" y="13" fill="#dca66a" font-weight="700">◐</text><text x="730.80" y="13" fill="#f1e6d6" font-weight="700" textLength="25.20" lengthAdjust="spacing">run</text><text x="764.40" y="13" fill="#f1e6d6" font-weight="700" textLength="42.00" lengthAdjust="spacing">tests</text></g>
<g id="r3"><text x="0.00" y="13" fill="#3a2e23" textLength="680.40" lengthAdjust="spacing">─────────────────────────────────────────────────────────────────────────────────</text><text x="688.80" y="13" fill="#3a2e23">│</text><text x="714.00" y="13" fill="#b8a690">○</text><text x="730.80" y="13" fill="#b8a690" textLength="33.60" lengthAdjust="spacing">docs</text></g>
<g id="r4"><text x="688.80" y="13" fill="#3a2e23">│</text></g>
<g id="r5"><text x="0.00" y="13" fill="#f1e6d6" textLength="42.00" lengthAdjust="spacing">Done.</text><text x="50.40" y="13" fill="#f1e6d6">I</text><text x="67.20" y="13" fill="#f1e6d6" textLength="42.00" lengthAdjust="spacing">added</text><text x="117.60" y="13" fill="#f1e6d6" textLength="25.20" lengthAdjust="spacing">the</text><text x="151.20" y="13" fill="#f1e6d6" textLength="33.60" lengthAdjust="spacing">flag</text><text x="193.20" y="13" fill="#f1e6d6" textLength="25.20" lengthAdjust="spacing">and</text><text x="226.80" y="13" fill="#f1e6d6" textLength="58.80" lengthAdjust="spacing">updated</text><text x="294.00" y="13" fill="#f1e6d6" textLength="25.20" lengthAdjust="spacing">the</text><text x="327.60" y="13" fill="#f1e6d6" textLength="50.40" lengthAdjust="spacing">tests.</text><text x="688.80" y="13" fill="#3a2e23">│</text><text x="705.60" y="13" fill="#cdbca6" font-weight="700" textLength="50.40" lengthAdjust="spacing">AGENTS</text></g>
<g id="r6"><text x="688.80" y="13" fill="#3a2e23">│</text><text x="714.00" y="13" fill="#b8a690" textLength="16.80" lengthAdjust="spacing">no</text><text x="739.20" y="13" fill="#b8a690" textLength="50.40" lengthAdjust="spacing">agents</text><text x="798.00" y="13" fill="#b8a690" textLength="58.80" lengthAdjust="spacing">started</text></g>
<g id="r7"><text x="0.00" y="13" fill="#f1e6d6">-</text><text x="16.80" y="13" fill="#f1e6d6" textLength="25.20" lengthAdjust="spacing">one</text><text x="688.80" y="13" fill="#3a2e23">│</text></g>
<g id="r8"><text x="0.00" y="13" fill="#f1e6d6">-</text><text x="16.80" y="13" fill="#f1e6d6" textLength="25.20" lengthAdjust="spacing">two</text><text x="688.80" y="13" fill="#3a2e23">│</text><text x="705.60" y="13" fill="#cdbca6" font-weight="700" textLength="42.00" lengthAdjust="spacing">FILES</text></g>
<g id="r9"><text x="688.80" y="13" fill="#3a2e23">│</text><text x="714.00" y="13" fill="#b8a690" textLength="16.80" lengthAdjust="spacing">no</text><text x="739.20" y="13" fill="#b8a690" textLength="42.00" lengthAdjust="spacing">files</text><text x="789.60" y="13" fill="#b8a690" textLength="58.80" lengthAdjust="spacing">changed</text><text x="856.80" y="13" fill="#b8a690" textLength="25.20" lengthAdjust="spacing">yet</text></g>
<g id="r10"><text x="0.00" y="13" fill="#f1e6d6" textLength="25.20" lengthAdjust="spacing">fmt</text><text x="25.20" y="13" fill="#cdbca6">.</text><text x="33.60" y="13" fill="#93b4cc" textLength="58.80" lengthAdjust="spacing">Println</text><text x="92.40" y="13" fill="#cdbca6">(</text><text x="100.80" y="13" fill="#f1e6d6" textLength="58.80" lengthAdjust="spacing">version</text><text x="159.60" y="13" fill="#cdbca6">)</text><text x="688.80" y="13" fill="#3a2e23">│</text></g>
<g id="r11"><text x="0.00" y="13" fill="#e8c46e" textLength="84.00" lengthAdjust="spacing">permission</text><text x="100.80" y="13" fill="#f1e6d6" textLength="33.60" lengthAdjust="spacing">bash</text><text x="151.20" y="13" fill="#e8c46e" textLength="50.40" lengthAdjust="spacing">prompt</text><text x="688.80" y="13" fill="#3a2e23">│</text></g>
<g id="r12"><text x="0.00" y="13" fill="#7a6436" textLength="680.40" lengthAdjust="spacing">╭───────────────────────────────────────────────────────────────────────────────╮</text><text x="688.80" y="13" fill="#3a2e23">│</text></g>
<g id="r13"><rect x="16.80" y="0" width="100.80" height="18" fill="#e8c46e"/><text x="0.00" y="13" fill="#7a6436">│</text><text x="25.20" y="13" fill="#1c1208" font-weight="700" textLength="84.00" lengthAdjust="spacing">PERMISSION</text><text x="411.60" y="13" fill="#e8c46e">●</text><text x="428.40" y="13" fill="#e8c46e" textLength="50.40" lengthAdjust="spacing">medium</text><text x="487.20" y="13" fill="#e8c46e" textLength="33.60" lengthAdjust="spacing">risk</text><text x="529.20" y="13" fill="#b8a690">·</text><text x="546.00" y="13" fill="#b8a690" textLength="50.40" lengthAdjust="spacing">inside</text><text x="604.80" y="13" fill="#b8a690" textLength="58.80" lengthAdjust="spacing">sandbox</text><text x="672.00" y="13" fill="#7a6436">│</text><text x="688.80" y="13" fill="#3a2e23">│</text></g>
<g id="r14"><text x="0.00" y="13" fill="#7a6436">│</text><text x="16.80" y="13" fill="#e8c46e" font-weight="700" textLength="33.60" lengthAdjust="spacing">bash</text><text x="67.20" y="13" fill="#f1e6d6" textLength="42.00" lengthAdjust="spacing">shell</text><text x="672.00" y="13" fill="#7a6436">│</text><text x="688.80" y="13" fill="#3a2e23">│</text></g>
<g id="r15"><text x="0.00" y="13" fill="#7a6436">│</text><text x="16.80" y="13" fill="#b8a690">$</text><text x="33.60" y="13" fill="#f1e6d6" font-weight="700" textLength="16.80" lengthAdjust="spacing">go</text><text x="58.80" y="13" fill="#f1e6d6" font-weight="700" textLength="33.60" lengthAdjust="spacing">test</text><text x="100.80" y="13" fill="#f1e6d6" font-weight="700" textLength="117.60" lengthAdjust="spacing">./internal/...</text><text x="672.00" y="13" fill="#7a6436">│</text><text x="688.80" y="13" fill="#3a2e23">│</text></g>
<g id="r16"><text x="0.00" y="13" fill="#7a6436">│</text><text x="16.80" y="13" fill="#cdbca6" textLength="33.60" lengthAdjust="spacing">runs</text><text x="58.80" y="13" fill="#cdbca6">a</text><text x="75.60" y="13" fill="#cdbca6" textLength="58.80" lengthAdjust="spacing">command</text><text x="142.80" y="13" fill="#cdbca6" textLength="33.60" lengthAdjust="spacing">that</text><text x="184.80" y="13" fill="#cdbca6" textLength="50.40" lengthAdjust="spacing">writes</text><text x="243.60" y="13" fill="#cdbca6" textLength="16.80" lengthAdjust="spacing">to</text><text x="268.80" y="13" fill="#cdbca6" textLength="33.60" lengthAdjust="spacing">disk</text><text x="672.00" y="13" fill="#7a6436">│</text><text x="688.80" y="13" fill="#3a2e23">│</text></g>
<g id="r17"><text x="0.00" y="13" fill="#7a6436">│</text><text x="672.00" y="13" fill="#7a6436">│</text><text x="688.80" y="13" fill="#3a2e23">│</text></g>
<g id="r18"><text x="0.00" y="13" fill="#7a6436">│</text><text x="16.80" y="13" fill="#dca66a" font-weight="700" textLength="50.40" lengthAdjust="spacing">CHOOSE</text><text x="672.00" y="13" fill="#7a6436">│</text><text x="688.80" y="13" fill="#3a2e23">│</text></g>
<g id="r19"><rect x="16.80" y="0" width="646.80" height="18" fill="#3a2a1a"/><text x="0.00" y="13" fill="#7a6436">│</text><text x="16.80" y="13" fill="#dca66a" font-weight="700">▌</text><text x="25.20" y="13" fill="#f1e6d6" font-weight="700" textLength="25.20" lengthAdjust="spacing">Yes</text><text x="646.80" y="13" fill="#f1e6d6" font-weight="700">a</text><text x="672.00" y="13" fill="#7a6436">│</text><text x="688.80" y="13" fill="#3a2e23">│</text></g>
<g id="r20"><rect x="638.40" y="0" width="25.20" height="18" fill="#2c231b"/><text x="0.00" y="13" fill="#7a6436">│</text><text x="25.20" y="13" fill="#f1e6d6" textLength="25.20" lengthAdjust="spacing">No,</text><text x="58.80" y="13" fill="#f1e6d6" textLength="33.60" lengthAdjust="spacing">skip</text><text x="100.80" y="13" fill="#f1e6d6" textLength="16.80" lengthAdjust="spacing">it</text><text x="126.00" y="13" fill="#f1e6d6" textLength="25.20" lengthAdjust="spacing">and</text><text x="159.60" y="13" fill="#f1e6d6" textLength="42.00" lengthAdjust="spacing">carry</text><text x="210.00" y="13" fill="#f1e6d6" textLength="16.80" lengthAdjust="spacing">on</text><text x="646.80" y="13" fill="#f1e6d6">d</text><text x="672.00" y="13" fill="#7a6436">│</text><text x="688.80" y="13" fill="#3a2e23">│</text></g>
<g id="r21"><rect x="638.40" y="0" width="25.20" height="18" fill="#2c231b"/><text x="0.00" y="13" fill="#7a6436">│</text><text x="25.20" y="13" fill="#f1e6d6" textLength="25.20" lengthAdjust="spacing">No,</text><text x="58.80" y="13" fill="#f1e6d6" textLength="25.20" lengthAdjust="spacing">and</text><text x="92.40" y="13" fill="#f1e6d6" textLength="33.60" lengthAdjust="spacing">tell</text><text x="134.40" y="13" fill="#f1e6d6" textLength="25.20" lengthAdjust="spacing">ulx</text><text x="168.00" y="13" fill="#f1e6d6" textLength="33.60" lengthAdjust="spacing">what</text><text x="210.00" y="13" fill="#f1e6d6" textLength="16.80" lengthAdjust="spacing">to</text><text x="235.20" y="13" fill="#f1e6d6" textLength="16.80" lengthAdjust="spacing">do</text><text x="260.40" y="13" fill="#f1e6d6" textLength="58.80" lengthAdjust="spacing">instead</text><text x="646.80" y="13" fill="#f1e6d6">n</text><text x="672.00" y="13" fill="#7a6436">│</text><text x="688.80" y="13" fill="#3a2e23">│</text></g>
<g id="r22"><text x="0.00" y="13" fill="#7a6436">│</text><text x="16.80" y="13" fill="#dca66a" font-weight="700" textLength="67.20" lengthAdjust="spacing">REMEMBER</text><text x="92.40" y="13" fill="#dca66a" font-weight="700" textLength="25.20" lengthAdjust="spacing">FOR</text><text x="672.00" y="13" fill="#7a6436">│</text><text x="688.80" y="13" fill="#3a2e23">│</text></g>
<g id="r23"><rect x="638.40" y="0" width="25.20" height="18" fill="#2c231b"/><text x="0.00" y="13" fill="#7a6436">│</text><text x="25.20" y="13" fill="#f1e6d6" textLength="50.40" lengthAdjust="spacing">allow,</text><text x="84.00" y="13" fill="#f1e6d6" textLength="50.40" lengthAdjust="spacing">strict</text><text x="142.80" y="13" fill="#f1e6d6" textLength="50.40" lengthAdjust="spacing">review</text><text x="646.80" y="13" fill="#f1e6d6">r</text><text x="672.00" y="13" fill="#7a6436">│</text><text x="688.80" y="13" fill="#3a2e23">│</text></g>
<g id="r24"><rect x="638.40" y="0" width="25.20" height="18" fill="#2c231b"/><text x="0.00" y="13" fill="#7a6436">│</text><text x="25.20" y="13" fill="#f1e6d6" textLength="33.60" lengthAdjust="spacing">Yes,</text><text x="67.20" y="13" fill="#f1e6d6" textLength="25.20" lengthAdjust="spacing">and</text><text x="100.80" y="13" fill="#f1e6d6" textLength="33.60" lengthAdjust="spacing">stop</text><text x="142.80" y="13" fill="#f1e6d6" textLength="50.40" lengthAdjust="spacing">asking</text><text x="201.60" y="13" fill="#f1e6d6" textLength="42.00" lengthAdjust="spacing">about</text><text x="252.00" y="13" fill="#f1e6d6" textLength="33.60" lengthAdjust="spacing">this</text><text x="294.00" y="13" fill="#f1e6d6" textLength="58.80" lengthAdjust="spacing">command</text><text x="361.20" y="13" fill="#f1e6d6" textLength="33.60" lengthAdjust="spacing">this</text><text x="403.20" y="13" fill="#f1e6d6" textLength="58.80" lengthAdjust="spacing">session</text><text x="646.80" y="13" fill="#f1e6d6">s</text><text x="672.00" y="13" fill="#7a6436">│</text><text x="688.80" y="13" fill="#3a2e23">│</text></g>
<g id="r25"><rect x="638.40" y="0" width="25.20" height="18" fill="#2c231b"/><text x="0.00" y="13" fill="#7a6436">│</text><text x="25.20" y="13" fill="#f1e6d6" textLength="33.60" lengthAdjust="spacing">Yes,</text><text x="67.20" y="13" fill="#f1e6d6" textLength="25.20" lengthAdjust="spacing">and</text><text x="100.80" y="13" fill="#f1e6d6" textLength="42.00" lengthAdjust="spacing">allow</text><text x="151.20" y="13" fill="#f1e6d6" textLength="67.20" lengthAdjust="spacing">commands</text><text x="226.80" y="13" fill="#f1e6d6" textLength="33.60" lengthAdjust="spacing">with</text><text x="268.80" y="13" fill="#f1e6d6" textLength="33.60" lengthAdjust="spacing">this</text><text x="310.80" y="13" fill="#f1e6d6" textLength="50.40" lengthAdjust="spacing">prefix</text><text x="369.60" y="13" fill="#f1e6d6" textLength="33.60" lengthAdjust="spacing">this</text><text x="411.60" y="13" fill="#f1e6d6" textLength="58.80" lengthAdjust="spacing">session</text><text x="646.80" y="13" fill="#f1e6d6">p</text><text x="672.00" y="13" fill="#7a6436">│</text><text x="688.80" y="13" fill="#3a2e23">│</text></g>
<g id="r26"><rect x="638.40" y="0" width="25.20" height="18" fill="#2c231b"/><text x="0.00" y="13" fill="#7a6436">│</text><text x="25.20" y="13" fill="#f1e6d6" textLength="33.60" lengthAdjust="spacing">Yes,</text><text x="67.20" y="13" fill="#f1e6d6" textLength="25.20" lengthAdjust="spacing">and</text><text x="100.80" y="13" fill="#f1e6d6" textLength="33.60" lengthAdjust="spacing">from</text><text x="142.80" y="13" fill="#f1e6d6" textLength="25.20" lengthAdjust="spacing">now</text><text x="176.40" y="13" fill="#f1e6d6" textLength="16.80" lengthAdjust="spacing">on</text><text x="201.60" y="13" fill="#f1e6d6" textLength="42.00" lengthAdjust="spacing">allow</text><text x="252.00" y="13" fill="#f1e6d6" textLength="67.20" lengthAdjust="spacing">commands</text><text x="327.60" y="13" fill="#f1e6d6" textLength="33.60" lengthAdjust="spacing">with</text><text x="369.60" y="13" fill="#f1e6d6" textLength="33.60" lengthAdjust="spacing">this</text><text x="411.60" y="13" fill="#f1e6d6" textLength="50.40" lengthAdjust="spacing">prefix</text><text x="646.80" y="13" fill="#f1e6d6">y</text><text x="672.00" y="13" fill="#7a6436">│</text><text x="688.80" y="13" fill="#3a2e23">│</text></g>
<g id="r27"><text x="0.00" y="13" fill="#7a6436">│</text><text x="16.80" y="13" fill="#f1e6d6" font-weight="700" textLength="16.80" lengthAdjust="spacing">↑↓</text><text x="42.00" y="13" fill="#b8a690" textLength="33.60" lengthAdjust="spacing">move</text><text x="84.00" y="13" fill="#a8977f">·</text><text x="100.80" y="13" fill="#f1e6d6" font-weight="700">⏎</text><text x="117.60" y="13" fill="#b8a690" textLength="50.40" lengthAdjust="spacing">choose</text><text x="176.40" y="13" fill="#a8977f">·</text><text x="193.20" y="13" fill="#f1e6d6" font-weight="700" textLength="42.00" lengthAdjust="spacing">click</text><text x="243.60" y="13" fill="#b8a690" textLength="50.40" lengthAdjust="spacing">choose</text><text x="302.40" y="13" fill="#a8977f">·</text><text x="319.20" y="13" fill="#f1e6d6" font-weight="700" textLength="25.20" lengthAdjust="spacing">esc</text><text x="352.80" y="13" fill="#b8a690" textLength="33.60" lengthAdjust="spacing">stop</text><text x="394.80" y="13" fill="#b8a690" textLength="25.20" lengthAdjust="spacing">run</text><text x="672.00" y="13" fill="#7a6436">│</text><text x="688.80" y="13" fill="#3a2e23">│</text></g>
<g id="r28"><text x="0.00" y="13" fill="#7a6436" textLength="680.40" lengthAdjust="spacing">╰───────────────────────────────────────────────────────────────────────────────╯</text><text x="688.80" y="13" fill="#3a2e23">│</text><text x="705.60" y="13" fill="#cdbca6" font-weight="700" textLength="58.80" lengthAdjust="spacing">CONTEXT</text></g>
<g id="r29"><text x="8.40" y="13" fill="#e8c46e">◆</text><text x="25.20" y="13" fill="#cdbca6" textLength="58.80" lengthAdjust="spacing">waiting</text><text x="92.40" y="13" fill="#cdbca6" textLength="25.20" lengthAdjust="spacing">for</text><text x="126.00" y="13" fill="#cdbca6" textLength="33.60" lengthAdjust="spacing">your</text><text x="168.00" y="13" fill="#cdbca6" textLength="50.40" lengthAdjust="spacing">answer</text><text x="688.80" y="13" fill="#3a2e23">│</text><text x="714.00" y="13" fill="#b8a690" textLength="16.80" lengthAdjust="spacing">no</text><text x="739.20" y="13" fill="#b8a690" textLength="42.00" lengthAdjust="spacing">usage</text><text x="789.60" y="13" fill="#b8a690" textLength="25.20" lengthAdjust="spacing">yet</text></g>
</defs>
<rect width="1044" height="648" rx="10" fill="#15171c" stroke="#2b2f38"/>
<rect width="1044" height="36" rx="10" fill="#1d2027"/><rect y="20" width="1044" height="16" fill="#1d2027"/>
<circle cx="20" cy="18" r="6" fill="#ff5f57"/><circle cx="40" cy="18" r="6" fill="#febc2e"/><circle cx="60" cy="18" r="6" fill="#28c840"/>
<text x="522" y="23" text-anchor="middle" fill="#8b919c" style="font-size:13px">ulx</text>
<g class="f" transform="translate(18,54)"><use href="#r0" y="0"/><use href="#r1" y="18"/><use href="#r2" y="36"/><use href="#r3" y="54"/><use href="#r4" y="72"/><use href="#r5" y="90"/><use href="#r6" y="108"/><use href="#r7" y="126"/><use href="#r8" y="144"/><use href="#r9" y="162"/><use href="#r10" y="180"/><use href="#r11" y="198"/><use href="#r4" y="216"/><use href="#r12" y="234"/><use href="#r13" y="252"/><use href="#r14" y="270"/><use href="#r15" y="288"/><use href="#r16" y="306"/><use href="#r17" y="324"/><use href="#r18" y="342"/><use href="#r19" y="360"/><use href="#r20" y="378"/><use href="#r21" y="396"/><use href="#r22" y="414"/><use href="#r23" y="432"/><use href="#r24" y="450"/><use href="#r25" y="468"/><use href="#r26" y="486"/><use href="#r17" y="504"/><use href="#r27" y="522"/><use href="#r28" y="540"/><use href="#r29" y="558"/></g>
</svg>
